<svg xmlns="http://www.w3.org/2000/svg" width="145" height="51" viewBox="0 0 145 51" fill="none"><path d="M45.231 42.3803H19.9046C13.1886 42.3803 9.87109 39.4272 9.87109 33.2817V8.61969H16.3443V33.2019C16.3443 35.1972 17.558 36.1549 19.9046 36.1549H45.231V42.3803Z" fill="#222423"></path><path d="M56.3984 20.8309H79.702C86.0134 20.8309 88.7645 23.6244 88.7645 29.3708V33.6009C88.7645 39.4272 86.1752 42.3004 79.702 42.3004H56.3984C50.0061 42.3004 47.3359 39.507 47.3359 33.6009V29.3708C47.4169 23.7042 50.168 20.8309 56.3984 20.8309ZM82.2913 33.6807V29.4507C82.2913 27.8544 81.4012 26.8967 79.702 26.8967H56.3984C54.6992 26.8967 53.8092 27.8544 53.8092 29.4507V33.6807C53.8092 35.7558 54.0519 36.2347 56.3984 36.2347H79.702C82.0485 36.2347 82.2913 35.7558 82.2913 33.6807Z" fill="#222423"></path><path d="M93.375 8.61969H126.065C132.376 8.61969 135.127 11.4131 135.127 17.1596V33.6009C135.127 39.4272 132.538 42.3004 126.065 42.3004H93.375V8.61969ZM99.8482 14.6056V36.2347H126.065C128.411 36.2347 128.654 35.7558 128.654 33.6807V17.2394C128.654 15.6432 127.764 14.6854 126.065 14.6854H99.8482V14.6056Z" fill="#222423"></path><path d="M51.1395 8.61969H84.3957C85.043 8.61969 85.6094 9.17838 85.6094 9.81687V13.4084C85.6094 14.0469 85.043 14.6056 84.3957 14.6056H51.1395C50.4922 14.6056 49.9258 14.0469 49.9258 13.4084V9.81687C49.9258 9.17838 50.4922 8.61969 51.1395 8.61969Z" fill="#222423"></path></svg>